{
  "accessors": [
    {
      "bufferView": 2,
      "componentType": 5126,
      "count": 65532,
      "max": [
        0.06955675780773163,
        0.285474568605423,
        -0.16811251640319824
      ],
      "min": [
        -0.3598252832889557,
        -0.285493403673172,
        -0.42205026745796204
      ],
      "type": "VEC3"
    },
    {
      "bufferView": 2,
      "byteOffset": 786384,
      "componentType": 5126,
      "count": 65532,
      "max": [
        0.9999983906745911,
        0.9999953508377075,
        0.9999942779541016
      ],
      "min": [
        -0.9999963045120239,
        -1.0,
        -0.9999890923500061
      ],
      "type": "VEC3"
    },
    {
      "bufferView": 1,
      "componentType": 5126,
      "count": 65532,
      "max": [
        0.9999868273735046,
        0.9969384670257568
      ],
      "min": [
        0.003991436213254929,
        0.009376108646392822
      ],
      "type": "VEC2"
    },
    {
      "bufferView": 0,
      "componentType": 5125,
      "count": 361605,
      "type": "SCALAR"
    },
    {
      "bufferView": 2,
      "byteOffset": 1572768,
      "componentType": 5126,
      "count": 65532,
      "max": [
        0.38372063636779785,
        0.2761012017726898,
        0.06144729256629944
      ],
      "min": [
        -0.3977527916431427,
        -0.2854028046131134,
        -0.2805803716182709
      ],
      "type": "VEC3"
    },
    {
      "bufferView": 2,
      "byteOffset": 2359152,
      "componentType": 5126,
      "count": 65532,
      "max": [
        0.9999895095825195,
        0.9999967813491821,
        0.9999978542327881
      ],
      "min": [
        -0.9999529719352722,
        -0.9999998807907104,
        -0.9999927282333374
      ],
      "type": "VEC3"
    },
    {
      "bufferView": 1,
      "byteOffset": 524256,
      "componentType": 5126,
      "count": 65532,
      "max": [
        0.9999784827232361,
        0.9996960759162903
      ],
      "min": [
        0.00019005523063242435,
        0.0029918551445007324
      ],
      "type": "VEC2"
    },
    {
      "bufferView": 0,
      "byteOffset": 1446420,
      "componentType": 5125,
      "count": 335220,
      "type": "SCALAR"
    },
    {
      "bufferView": 2,
      "byteOffset": 3145536,
      "componentType": 5126,
      "count": 65532,
      "max": [
        0.49785709381103516,
        0.09165859967470169,
        0.25815531611442566
      ],
      "min": [
        -0.5,
        -0.2252126932144165,
        -0.12757888436317444
      ],
      "type": "VEC3"
    },
    {
      "bufferView": 2,
      "byteOffset": 3931920,
      "componentType": 5126,
      "count": 65532,
      "max": [
        0.9999724626541138,
        1.0,
        0.9999647736549377
      ],
      "min": [
        -0.9999902248382568,
        -1.0,
        -0.9999507069587708
      ],
      "type": "VEC3"
    },
    {
      "bufferView": 1,
      "byteOffset": 1048512,
      "componentType": 5126,
      "count": 65532,
      "max": [
        0.9999563694000244,
        0.9995444416999817
      ],
      "min": [
        0.0033546409104019403,
        0.004151701927185059
      ],
      "type": "VEC2"
    },
    {
      "bufferView": 0,
      "byteOffset": 2787300,
      "componentType": 5125,
      "count": 340374,
      "type": "SCALAR"
    },
    {
      "bufferView": 2,
      "byteOffset": 4718304,
      "componentType": 5126,
      "count": 65532,
      "max": [
        0.45889952778816223,
        0.00244076712988317,
        0.4220501780509949
      ],
      "min": [
        -0.46130427718162537,
        -0.21868260204792023,
        -0.07796277105808258
      ],
      "type": "VEC3"
    },
    {
      "bufferView": 2,
      "byteOffset": 5504688,
      "componentType": 5126,
      "count": 65532,
      "max": [
        0.999700665473938,
        0.9999998807907104,
        0.9999611973762512
      ],
      "min": [
        -0.9999532699584961,
        -0.9999997615814209,
        -0.9999634623527527
      ],
      "type": "VEC3"
    },
    {
      "bufferView": 1,
      "byteOffset": 1572768,
      "componentType": 5126,
      "count": 65532,
      "max": [
        0.9995379447937012,
        0.9997816681861877
      ],
      "min": [
        0.00405026413500309,
        0.01075071096420288
      ],
      "type": "VEC2"
    },
    {
      "bufferView": 0,
      "byteOffset": 4148796,
      "componentType": 5125,
      "count": 346266,
      "type": "SCALAR"
    },
    {
      "bufferView": 2,
      "byteOffset": 6291072,
      "componentType": 5126,
      "count": 27144,
      "max": [
        0.5,
        0.09198685735464096,
        0.04131295904517174
      ],
      "min": [
        -0.4993647634983063,
        -0.22015468776226044,
        -0.08083456754684448
      ],
      "type": "VEC3"
    },
    {
      "bufferView": 2,
      "byteOffset": 6616800,
      "componentType": 5126,
      "count": 27144,
      "max": [
        0.9995009303092957,
        0.99998539686203,
        0.9997633099555969
      ],
      "min": [
        -0.9999989867210388,
        -0.9999994039535522,
        -0.9999606013298035
      ],
      "type": "VEC3"
    },
    {
      "bufferView": 1,
      "byteOffset": 2097024,
      "componentType": 5126,
      "count": 27144,
      "max": [
        0.9928397536277771,
        0.9999585151672363
      ],
      "min": [
        0.00016108770796563476,
        0.005058467388153076
      ],
      "type": "VEC2"
    },
    {
      "bufferView": 0,
      "byteOffset": 5533860,
      "componentType": 5125,
      "count": 116523,
      "type": "SCALAR"
    }
  ],
  "asset": {
    "extras": {
      "author": "rafaelferreira.1808 (https://sketchfab.com/rafaelferreira.1808)",
      "license": "CC-BY-4.0 (http://creativecommons.org/licenses/by/4.0/)",
      "source": "https://sketchfab.com/3d-models/max-vestappen-c8a1e34aaa7c47d99debc806cd688a32",
      "title": "Max Vestappen"
    },
    "generator": "Sketchfab-16.72.0",
    "version": "2.0"
  },
  "bufferViews": [
    {
      "buffer": 0,
      "byteLength": 5999952,
      "name": "floatBufferViews",
      "target": 34963
    },
    {
      "buffer": 0,
      "byteLength": 2314176,
      "byteOffset": 5999952,
      "byteStride": 8,
      "name": "floatBufferViews",
      "target": 34962
    },
    {
      "buffer": 0,
      "byteLength": 6942528,
      "byteOffset": 8314128,
      "byteStride": 12,
      "name": "floatBufferViews",
      "target": 34962
    }
  ],
  "buffers": [
    {
      "byteLength": 15256656,
      "uri": "scene.bin"
    }
  ],
  "images": [
    {
      "uri": "textures/tripo_mat_7949ee22-0eea-422c-a7af-269299dee673_baseColor.jpeg"
    }
  ],
  "materials": [
    {
      "name": "tripo_mat_7949ee22-0eea-422c-a7af-269299dee673",
      "pbrMetallicRoughness": {
        "baseColorTexture": {
          "index": 0
        },
        "roughnessFactor": 0.903602
      }
    }
  ],
  "meshes": [
    {
      "name": "Object_0",
      "primitives": [
        {
          "attributes": {
            "NORMAL": 1,
            "POSITION": 0,
            "TEXCOORD_0": 2
          },
          "indices": 3,
          "material": 0,
          "mode": 4
        }
      ]
    },
    {
      "name": "Object_1",
      "primitives": [
        {
          "attributes": {
            "NORMAL": 5,
            "POSITION": 4,
            "TEXCOORD_0": 6
          },
          "indices": 7,
          "material": 0,
          "mode": 4
        }
      ]
    },
    {
      "name": "Object_2",
      "primitives": [
        {
          "attributes": {
            "NORMAL": 9,
            "POSITION": 8,
            "TEXCOORD_0": 10
          },
          "indices": 11,
          "material": 0,
          "mode": 4
        }
      ]
    },
    {
      "name": "Object_3",
      "primitives": [
        {
          "attributes": {
            "NORMAL": 13,
            "POSITION": 12,
            "TEXCOORD_0": 14
          },
          "indices": 15,
          "material": 0,
          "mode": 4
        }
      ]
    },
    {
      "name": "Object_4",
      "primitives": [
        {
          "attributes": {
            "NORMAL": 17,
            "POSITION": 16,
            "TEXCOORD_0": 18
          },
          "indices": 19,
          "material": 0,
          "mode": 4
        }
      ]
    }
  ],
  "nodes": [
    {
      "children": [
        1
      ],
      "matrix": [
        1.0,
        0.0,
        0.0,
        0.0,
        0.0,
        2.220446049250313e-16,
        -1.0,
        0.0,
        0.0,
        1.0,
        2.220446049250313e-16,
        0.0,
        0.0,
        0.0,
        0.0,
        1.0
      ],
      "name": "Sketchfab_model"
    },
    {
      "children": [
        2
      ],
      "name": "root"
    },
    {
      "children": [
        3
      ],
      "matrix": [
        1.0,
        0.0,
        0.0,
        0.0,
        0.0,
        2.220446049250313e-16,
        1.0,
        0.0,
        0.0,
        -1.0,
        2.220446049250313e-16,
        0.0,
        0.0,
        0.0,
        0.0,
        1.0
      ],
      "name": "GLTF_SceneRootNode"
    },
    {
      "children": [
        4,
        5,
        6,
        7,
        8
      ],
      "name": "tripo_node_7949ee22-0eea-422c-a7af-269299dee673_0"
    },
    {
      "mesh": 0,
      "name": "Object_4"
    },
    {
      "mesh": 1,
      "name": "Object_5"
    },
    {
      "mesh": 2,
      "name": "Object_6"
    },
    {
      "mesh": 3,
      "name": "Object_7"
    },
    {
      "mesh": 4,
      "name": "Object_8"
    }
  ],
  "samplers": [
    {
      "magFilter": 9729,
      "minFilter": 9987,
      "wrapS": 10497,
      "wrapT": 10497
    }
  ],
  "scene": 0,
  "scenes": [
    {
      "name": "Sketchfab_Scene",
      "nodes": [
        0
      ]
    }
  ],
  "textures": [
    {
      "sampler": 0,
      "source": 0
    }
  ]
}
