{
  "accessors": [
    {
      "bufferView": 2,
      "componentType": 5126,
      "count": 888,
      "max": [
        0.30000001192092896,
        0.75,
        0.014999999664723873
      ],
      "min": [
        -0.30000001192092896,
        -0.75,
        -0.014999999664723873
      ],
      "type": "VEC3"
    },
    {
      "bufferView": 2,
      "byteOffset": 10656,
      "componentType": 5126,
      "count": 888,
      "max": [
        1.0,
        1.0,
        1.0
      ],
      "min": [
        -1.0,
        -1.0,
        -1.0
      ],
      "type": "VEC3"
    },
    {
      "bufferView": 1,
      "componentType": 5126,
      "count": 888,
      "max": [
        1.9839284420013428,
        1.9839285612106323
      ],
      "min": [
        -0.9839285016059875,
        -0.9839284420013428
      ],
      "type": "VEC2"
    },
    {
      "bufferView": 1,
      "byteOffset": 7104,
      "componentType": 5126,
      "count": 888,
      "max": [
        0.8750000596046448,
        1.0
      ],
      "min": [
        0.125,
        0.0
      ],
      "type": "VEC2"
    },
    {
      "bufferView": 0,
      "componentType": 5125,
      "count": 4356,
      "type": "SCALAR"
    },
    {
      "bufferView": 2,
      "byteOffset": 21312,
      "componentType": 5126,
      "count": 440,
      "max": [
        0.6971055865287781,
        0.013854186981916428,
        0.47429531812667847
      ],
      "min": [
        -0.6971055865287781,
        -0.013854186981916428,
        -0.01711452007293701
      ],
      "type": "VEC3"
    },
    {
      "bufferView": 2,
      "byteOffset": 26592,
      "componentType": 5126,
      "count": 440,
      "max": [
        1.0,
        1.0,
        1.0
      ],
      "min": [
        -1.0,
        -1.0,
        -1.0
      ],
      "type": "VEC3"
    },
    {
      "bufferView": 1,
      "byteOffset": 14208,
      "componentType": 5126,
      "count": 440,
      "max": [
        1.2982914447784424,
        1.6550828218460083
      ],
      "min": [
        -0.5138645172119141,
        -0.6550828218460083
      ],
      "type": "VEC2"
    },
    {
      "bufferView": 0,
      "byteOffset": 17424,
      "componentType": 5125,
      "count": 1308,
      "type": "SCALAR"
    },
    {
      "bufferView": 2,
      "byteOffset": 31872,
      "componentType": 5126,
      "count": 440,
      "max": [
        0.6971055865287781,
        0.013854186981916428,
        0.47429531812667847
      ],
      "min": [
        -0.6971055865287781,
        -0.013854186981916428,
        -0.01711452007293701
      ],
      "type": "VEC3"
    },
    {
      "bufferView": 2,
      "byteOffset": 37152,
      "componentType": 5126,
      "count": 440,
      "max": [
        1.0,
        1.0,
        1.0
      ],
      "min": [
        -1.0,
        -1.0,
        -1.0
      ],
      "type": "VEC3"
    },
    {
      "bufferView": 1,
      "byteOffset": 17728,
      "componentType": 5126,
      "count": 440,
      "max": [
        1.9025237560272217,
        1.8671612739562988
      ],
      "min": [
        -0.9025237560272217,
        -0.885748565196991
      ],
      "type": "VEC2"
    },
    {
      "bufferView": 0,
      "byteOffset": 22656,
      "componentType": 5125,
      "count": 1308,
      "type": "SCALAR"
    }
  ],
  "asset": {
    "extras": {
      "author": "pharloom_ (https://sketchfab.com/pharloom_)",
      "license": "SKETCHFAB Standard (https://sketchfab.com/licenses)",
      "source": "https://sketchfab.com/3d-models/table-49e348e51124447db1860c00a9ea245c",
      "title": "Table"
    },
    "generator": "Sketchfab-16.28.0",
    "version": "2.0"
  },
  "bufferViews": [
    {
      "buffer": 0,
      "byteLength": 27888,
      "name": "floatBufferViews",
      "target": 34963
    },
    {
      "buffer": 0,
      "byteLength": 21248,
      "byteOffset": 27888,
      "byteStride": 8,
      "name": "floatBufferViews",
      "target": 34962
    },
    {
      "buffer": 0,
      "byteLength": 42432,
      "byteOffset": 49136,
      "byteStride": 12,
      "name": "floatBufferViews",
      "target": 34962
    }
  ],
  "buffers": [
    {
      "byteLength": 91568,
      "uri": "scene.bin"
    }
  ],
  "materials": [
    {
      "doubleSided": true,
      "name": "Wood.006",
      "pbrMetallicRoughness": {
        "baseColorFactor": [
          0.8,
          0.8,
          0.8,
          1.0
        ],
        "metallicFactor": 0.0,
        "roughnessFactor": 0.8211145618000169
      }
    }
  ],
  "meshes": [
    {
      "name": "Cube.046_Wood.006_0",
      "primitives": [
        {
          "attributes": {
            "NORMAL": 1,
            "POSITION": 0,
            "TEXCOORD_0": 2,
            "TEXCOORD_1": 3
          },
          "indices": 4,
          "material": 0,
          "mode": 4
        }
      ]
    },
    {
      "name": "Cube.056_Wood.006_0",
      "primitives": [
        {
          "attributes": {
            "NORMAL": 6,
            "POSITION": 5,
            "TEXCOORD_0": 7
          },
          "indices": 8,
          "material": 0,
          "mode": 4
        }
      ]
    },
    {
      "name": "Cube.055_Wood.006_0",
      "primitives": [
        {
          "attributes": {
            "NORMAL": 10,
            "POSITION": 9,
            "TEXCOORD_0": 11
          },
          "indices": 12,
          "material": 0,
          "mode": 4
        }
      ]
    }
  ],
  "nodes": [
    {
      "children": [
        1
      ],
      "matrix": [
        1.0,
        0.0,
        0.0,
        0.0,
        0.0,
        2.220446049250313e-16,
        -1.0,
        0.0,
        0.0,
        1.0,
        2.220446049250313e-16,
        0.0,
        0.0,
        0.0,
        0.0,
        1.0
      ],
      "name": "Sketchfab_model"
    },
    {
      "children": [
        2
      ],
      "matrix": [
        0.009999999776482582,
        0.0,
        0.0,
        0.0,
        0.0,
        0.0,
        0.009999999776482582,
        0.0,
        0.0,
        -0.009999999776482582,
        0.0,
        0.0,
        0.0,
        0.0,
        0.0,
        1.0
      ],
      "name": "Mesa.fbx"
    },
    {
      "children": [
        3
      ],
      "name": "RootNode"
    },
    {
      "children": [
        4,
        5,
        7
      ],
      "matrix": [
        4.371139006309477e-06,
        -1.1102230246251565e-14,
        -99.99999999999991,
        0.0,
        -99.99999999999982,
        -4.371139006309477e-06,
        -4.371139011860592e-06,
        0.0,
        -4.230637400426272e-06,
        96.78569793701163,
        -1.9341667854735466e-13,
        0.0,
        0.0,
        0.0,
        0.0,
        1.0
      ],
      "name": "Cube.046"
    },
    {
      "mesh": 0,
      "name": "Cube.046_Wood.006_0"
    },
    {
      "children": [
        6
      ],
      "matrix": [
        -1.6292067983592062e-07,
        -0.9999999999999866,
        2.6469779601696886e-23,
        0.0,
        -0.9999999999999752,
        1.6292068005796523e-07,
        1.5099579909783704e-07,
        0.0,
        -1.5099579909783505e-07,
        2.4600338222141912e-14,
        -0.9999999999999885,
        0.0,
        0.22637760639190674,
        0.00036977732088416815,
        -0.03211452066898346,
        1.0
      ],
      "name": "Cube.056"
    },
    {
      "mesh": 1,
      "name": "Cube.056_Wood.006_0"
    },
    {
      "children": [
        8
      ],
      "matrix": [
        -1.6292067983592062e-07,
        -0.9999999999999866,
        2.6469779601696886e-23,
        0.0,
        -0.9999999999999752,
        1.6292068005796523e-07,
        1.5099579909783704e-07,
        0.0,
        -1.5099579909783505e-07,
        2.4600338222141912e-14,
        -0.9999999999999885,
        0.0,
        -0.2126295566558838,
        0.00036979650030843914,
        -0.03211452066898346,
        1.0
      ],
      "name": "Cube.055"
    },
    {
      "mesh": 2,
      "name": "Cube.055_Wood.006_0"
    }
  ],
  "scene": 0,
  "scenes": [
    {
      "name": "Sketchfab_Scene",
      "nodes": [
        0
      ]
    }
  ]
}
