{
  "accessors": [
    {
      "bufferView": 1,
      "componentType": 5126,
      "count": 47704,
      "max": [
        91.54289245605469,
        0.07700842618942261,
        102.12952423095703
      ],
      "min": [
        -58.63758087158203,
        -27.803768157958984,
        -0.35499048233032227
      ],
      "type": "VEC3"
    },
    {
      "bufferView": 1,
      "byteOffset": 572448,
      "componentType": 5126,
      "count": 47704,
      "max": [
        0.999968409538269,
        1.0,
        0.9999896883964539
      ],
      "min": [
        -0.9999043941497803,
        -1.0,
        -1.0
      ],
      "type": "VEC3"
    },
    {
      "bufferView": 0,
      "componentType": 5125,
      "count": 262614,
      "type": "SCALAR"
    }
  ],
  "asset": {
    "extras": {
      "author": "DRMSlot (https://sketchfab.com/DRMSlot)",
      "license": "CC-BY-4.0 (http://creativecommons.org/licenses/by/4.0/)",
      "source": "https://sketchfab.com/3d-models/casco-taller-de-premios-06022025-7728739db53f404793ef792a3279509c",
      "title": "Casco_Taller_de_Premios_06.02.2025"
    },
    "generator": "Sketchfab-16.59.0",
    "version": "2.0"
  },
  "bufferViews": [
    {
      "buffer": 0,
      "byteLength": 1050456,
      "name": "floatBufferViews",
      "target": 34963
    },
    {
      "buffer": 0,
      "byteLength": 1144896,
      "byteOffset": 1050456,
      "byteStride": 12,
      "name": "floatBufferViews",
      "target": 34962
    }
  ],
  "buffers": [
    {
      "byteLength": 2195352,
      "uri": "scene.bin"
    }
  ],
  "materials": [
    {
      "doubleSided": true,
      "name": "Scene_-_Root",
      "pbrMetallicRoughness": {
        "baseColorFactor": [
          0.7494345424331753,
          0.5873421039760641,
          0.11289061256435376,
          1.0
        ],
        "roughnessFactor": 0.6
      }
    }
  ],
  "meshes": [
    {
      "name": "Object_0",
      "primitives": [
        {
          "attributes": {
            "NORMAL": 1,
            "POSITION": 0
          },
          "indices": 2,
          "material": 0,
          "mode": 4
        }
      ]
    }
  ],
  "nodes": [
    {
      "children": [
        1
      ],
      "matrix": [
        1.0,
        0.0,
        0.0,
        0.0,
        0.0,
        2.220446049250313e-16,
        -1.0,
        0.0,
        0.0,
        1.0,
        2.220446049250313e-16,
        0.0,
        0.0,
        0.0,
        0.0,
        1.0
      ],
      "name": "Sketchfab_model"
    },
    {
      "children": [
        2
      ],
      "name": "Prueba_Casco_MotoGP_3.stl.cleaner.materialmerger.gles"
    },
    {
      "mesh": 0,
      "name": "Object_2"
    }
  ],
  "scene": 0,
  "scenes": [
    {
      "name": "Sketchfab_Scene",
      "nodes": [
        0
      ]
    }
  ]
}
