{
  "accessors": [
    {
      "bufferView": 2,
      "componentType": 5126,
      "count": 30,
      "max": [
        0.7075629830360413,
        0.1024560034275055,
        2.1988890171051025
      ],
      "min": [
        -0.7075629830360413,
        -0.7571300268173218,
        1.6005489826202393
      ],
      "type": "VEC3"
    },
    {
      "bufferView": 2,
      "byteOffset": 360,
      "componentType": 5126,
      "count": 30,
      "max": [
        0.9911410212516785,
        0.9981704950332642,
        0.14089588820934296
      ],
      "min": [
        -0.9911410212516785,
        -0.06649923324584961,
        0.05869826301932335
      ],
      "type": "VEC3"
    },
    {
      "bufferView": 1,
      "componentType": 5126,
      "count": 30,
      "max": [
        2.052733898162842,
        1.9228520393371582
      ],
      "min": [
        1.0761719942092896,
        1.1162110567092896
      ],
      "type": "VEC2"
    },
    {
      "bufferView": 0,
      "componentType": 5125,
      "count": 72,
      "type": "SCALAR"
    },
    {
      "bufferView": 2,
      "byteOffset": 720,
      "componentType": 5126,
      "count": 37,
      "max": [
        0.6662060022354126,
        -0.7590709924697876,
        2.2611680030822754
      ],
      "min": [
        -0.6662060022354126,
        -1.0640100240707397,
        1.6009290218353271
      ],
      "type": "VEC3"
    },
    {
      "bufferView": 2,
      "byteOffset": 1164,
      "componentType": 5126,
      "count": 37,
      "max": [
        0.6125129461288452,
        -0.7682161927223206,
        0.1995997279882431
      ],
      "min": [
        -0.6124658584594727,
        -0.9850432276725769,
        0.16350781917572021
      ],
      "type": "VEC3"
    },
    {
      "bufferView": 1,
      "byteOffset": 240,
      "componentType": 5126,
      "count": 37,
      "max": [
        0.9960939884185791,
        0.9863280057907104
      ],
      "min": [
        0.004025000147521496,
        0.003645000047981739
      ],
      "type": "VEC2"
    },
    {
      "bufferView": 0,
      "byteOffset": 288,
      "componentType": 5125,
      "count": 96,
      "type": "SCALAR"
    },
    {
      "bufferView": 2,
      "byteOffset": 1608,
      "componentType": 5126,
      "count": 58,
      "max": [
        0.7999449968338013,
        2.2408699989318848,
        1.2317099571228027
      ],
      "min": [
        -0.7999449968338013,
        2.2154500484466553,
        1.081220030784607
      ],
      "type": "VEC3"
    },
    {
      "bufferView": 2,
      "byteOffset": 2304,
      "componentType": 5126,
      "count": 58,
      "max": [
        0.5002832412719727,
        0.9978398680686951,
        0.501611053943634
      ],
      "min": [
        -0.5002082586288452,
        0.8466565012931824,
        -0.4120940566062927
      ],
      "type": "VEC3"
    },
    {
      "bufferView": 1,
      "byteOffset": 536,
      "componentType": 5126,
      "count": 58,
      "max": [
        0.9536129832267761,
        0.9652940034866333
      ],
      "min": [
        0.051910001784563065,
        0.03984899818897247
      ],
      "type": "VEC2"
    },
    {
      "bufferView": 0,
      "byteOffset": 672,
      "componentType": 5125,
      "count": 156,
      "type": "SCALAR"
    },
    {
      "bufferView": 2,
      "byteOffset": 3000,
      "componentType": 5126,
      "count": 10535,
      "max": [
        1.0405000448226929,
        2.7910799980163574,
        2.5263900756835938
      ],
      "min": [
        -1.0403000116348267,
        -2.1698598861694336,
        0.22005100548267365
      ],
      "type": "VEC3"
    },
    {
      "bufferView": 2,
      "byteOffset": 129420,
      "componentType": 5126,
      "count": 10535,
      "max": [
        1.0,
        1.0,
        1.0
      ],
      "min": [
        -1.0,
        -1.0,
        -1.0
      ],
      "type": "VEC3"
    },
    {
      "bufferView": 1,
      "byteOffset": 1000,
      "componentType": 5126,
      "count": 10535,
      "max": [
        0.9980469942092896,
        4.001441955566406
      ],
      "min": [
        -4.400000034365803e-05,
        -1.7036360502243042
      ],
      "type": "VEC2"
    },
    {
      "bufferView": 0,
      "byteOffset": 1296,
      "componentType": 5125,
      "count": 20418,
      "type": "SCALAR"
    },
    {
      "bufferView": 2,
      "byteOffset": 255840,
      "componentType": 5126,
      "count": 3435,
      "max": [
        1.078220009803772,
        1.8516099452972412,
        0.8900579810142517
      ],
      "min": [
        -1.078220009803772,
        -1.8609989881515503,
        0.0011390000581741333
      ],
      "type": "VEC3"
    },
    {
      "bufferView": 2,
      "byteOffset": 297060,
      "componentType": 5126,
      "count": 3435,
      "max": [
        1.0,
        0.987645149230957,
        0.9879777431488037
      ],
      "min": [
        -1.0,
        -0.987645149230957,
        -0.9879777431488037
      ],
      "type": "VEC3"
    },
    {
      "bufferView": 1,
      "byteOffset": 85280,
      "componentType": 5126,
      "count": 3435,
      "max": [
        2.0,
        0.9946290254592896
      ],
      "min": [
        0.0,
        0.006515999790281057
      ],
      "type": "VEC2"
    },
    {
      "bufferView": 0,
      "byteOffset": 82968,
      "componentType": 5125,
      "count": 8760,
      "type": "SCALAR"
    },
    {
      "bufferView": 2,
      "byteOffset": 338280,
      "componentType": 5126,
      "count": 5544,
      "max": [
        1.2153459787368774,
        0.6305369734764099,
        2.590749979019165
      ],
      "min": [
        -1.210893988609314,
        -2.3297200202941895,
        0.36178699135780334
      ],
      "type": "VEC3"
    },
    {
      "bufferView": 2,
      "byteOffset": 404808,
      "componentType": 5126,
      "count": 5544,
      "max": [
        0.999992847442627,
        1.0,
        1.0
      ],
      "min": [
        -0.9998748302459717,
        -1.0,
        -0.9999938011169434
      ],
      "type": "VEC3"
    },
    {
      "bufferView": 1,
      "byteOffset": 112760,
      "componentType": 5126,
      "count": 5544,
      "max": [
        0.9975590109825134,
        0.9975590109825134
      ],
      "min": [
        0.003982999827712774,
        0.0023399998899549246
      ],
      "type": "VEC2"
    },
    {
      "bufferView": 0,
      "byteOffset": 118008,
      "componentType": 5125,
      "count": 12072,
      "type": "SCALAR"
    },
    {
      "bufferView": 2,
      "byteOffset": 471336,
      "componentType": 5126,
      "count": 87,
      "max": [
        -0.6575869917869568,
        -2.1190900802612305,
        1.336400032043457
      ],
      "min": [
        -0.8572319746017456,
        -2.1500000953674316,
        1.1366499662399292
      ],
      "type": "VEC3"
    },
    {
      "bufferView": 2,
      "byteOffset": 472380,
      "componentType": 5126,
      "count": 87,
      "max": [
        0.9885949492454529,
        0.0001000048141577281,
        0.9761518239974976
      ],
      "min": [
        -0.9970078468322754,
        -0.9999904632568359,
        -0.9994150400161743
      ],
      "type": "VEC3"
    },
    {
      "bufferView": 1,
      "byteOffset": 157112,
      "componentType": 5126,
      "count": 87,
      "max": [
        0.9667969942092896,
        0.9726369976997375
      ],
      "min": [
        0.0342710018157959,
        0.05689600110054016
      ],
      "type": "VEC2"
    },
    {
      "bufferView": 0,
      "byteOffset": 166296,
      "componentType": 5125,
      "count": 234,
      "type": "SCALAR"
    }
  ],
  "asset": {
    "extras": {
      "author": "DinseyPixarCarsModels (https://sketchfab.com/DinseyPixarCarsModels)",
      "license": "CC-BY-4.0 (http://creativecommons.org/licenses/by/4.0/)",
      "source": "https://sketchfab.com/3d-models/mater-59b2ec85957a4c4c81c017a4872e5f9d",
      "title": "Mater"
    },
    "generator": "Sketchfab-16.75.0",
    "version": "2.0"
  },
  "bufferViews": [
    {
      "buffer": 0,
      "byteLength": 167232,
      "name": "floatBufferViews",
      "target": 34963
    },
    {
      "buffer": 0,
      "byteLength": 157808,
      "byteOffset": 167232,
      "byteStride": 8,
      "name": "floatBufferViews",
      "target": 34962
    },
    {
      "buffer": 0,
      "byteLength": 473424,
      "byteOffset": 325040,
      "byteStride": 12,
      "name": "floatBufferViews",
      "target": 34962
    }
  ],
  "buffers": [
    {
      "byteLength": 798464,
      "uri": "scene.bin"
    }
  ],
  "images": [
    {
      "uri": "textures/Material.002_baseColor.png"
    },
    {
      "uri": "textures/Material.006_baseColor.jpeg"
    },
    {
      "uri": "textures/Material.006_metallicRoughness.png"
    },
    {
      "uri": "textures/Material.007_baseColor.png"
    },
    {
      "uri": "textures/Material.008_baseColor.png"
    },
    {
      "uri": "textures/Material.009_baseColor.png"
    },
    {
      "uri": "textures/Material.010_baseColor.jpeg"
    },
    {
      "uri": "textures/Material.011_baseColor.png"
    }
  ],
  "materials": [
    {
      "alphaMode": "BLEND",
      "doubleSided": true,
      "name": "Material.002",
      "pbrMetallicRoughness": {
        "baseColorFactor": [
          1.0,
          1.0,
          1.0,
          0.37638209945020784
        ],
        "baseColorTexture": {
          "index": 0
        },
        "metallicFactor": 0.0,
        "roughnessFactor": 0.0
      }
    },
    {
      "doubleSided": true,
      "name": "Material.006",
      "pbrMetallicRoughness": {
        "baseColorTexture": {
          "index": 1
        },
        "metallicFactor": 0.0,
        "metallicRoughnessTexture": {
          "index": 2
        }
      }
    },
    {
      "doubleSided": true,
      "name": "Material.007",
      "pbrMetallicRoughness": {
        "baseColorTexture": {
          "index": 3
        },
        "roughnessFactor": 0.8011820000000001
      }
    },
    {
      "doubleSided": true,
      "name": "Material.008",
      "pbrMetallicRoughness": {
        "baseColorTexture": {
          "index": 4
        },
        "metallicFactor": 0.0,
        "roughnessFactor": 0.4
      }
    },
    {
      "doubleSided": true,
      "name": "Material.009",
      "pbrMetallicRoughness": {
        "baseColorTexture": {
          "index": 5
        },
        "metallicFactor": 0.20571491265497188,
        "roughnessFactor": 0.44076020041203934
      }
    },
    {
      "doubleSided": true,
      "name": "Material.010",
      "pbrMetallicRoughness": {
        "baseColorTexture": {
          "index": 6
        },
        "metallicFactor": 0.0,
        "roughnessFactor": 0.4
      }
    },
    {
      "doubleSided": true,
      "name": "Material.011",
      "pbrMetallicRoughness": {
        "baseColorTexture": {
          "index": 7
        },
        "metallicFactor": 0.0,
        "roughnessFactor": 0.0
      }
    }
  ],
  "meshes": [
    {
      "name": "Object_0",
      "primitives": [
        {
          "attributes": {
            "NORMAL": 1,
            "POSITION": 0,
            "TEXCOORD_0": 2
          },
          "indices": 3,
          "material": 0,
          "mode": 4
        }
      ]
    },
    {
      "name": "Object_1",
      "primitives": [
        {
          "attributes": {
            "NORMAL": 5,
            "POSITION": 4,
            "TEXCOORD_0": 6
          },
          "indices": 7,
          "material": 1,
          "mode": 4
        }
      ]
    },
    {
      "name": "Object_2",
      "primitives": [
        {
          "attributes": {
            "NORMAL": 9,
            "POSITION": 8,
            "TEXCOORD_0": 10
          },
          "indices": 11,
          "material": 2,
          "mode": 4
        }
      ]
    },
    {
      "name": "Object_3",
      "primitives": [
        {
          "attributes": {
            "NORMAL": 13,
            "POSITION": 12,
            "TEXCOORD_0": 14
          },
          "indices": 15,
          "material": 3,
          "mode": 4
        }
      ]
    },
    {
      "name": "Object_4",
      "primitives": [
        {
          "attributes": {
            "NORMAL": 17,
            "POSITION": 16,
            "TEXCOORD_0": 18
          },
          "indices": 19,
          "material": 4,
          "mode": 4
        }
      ]
    },
    {
      "name": "Object_5",
      "primitives": [
        {
          "attributes": {
            "NORMAL": 21,
            "POSITION": 20,
            "TEXCOORD_0": 22
          },
          "indices": 23,
          "material": 5,
          "mode": 4
        }
      ]
    },
    {
      "name": "Object_6",
      "primitives": [
        {
          "attributes": {
            "NORMAL": 25,
            "POSITION": 24,
            "TEXCOORD_0": 26
          },
          "indices": 27,
          "material": 6,
          "mode": 4
        }
      ]
    }
  ],
  "nodes": [
    {
      "children": [
        1
      ],
      "matrix": [
        1.0,
        0.0,
        0.0,
        0.0,
        0.0,
        2.220446049250313e-16,
        -1.0,
        0.0,
        0.0,
        1.0,
        2.220446049250313e-16,
        0.0,
        0.0,
        0.0,
        0.0,
        1.0
      ],
      "name": "Sketchfab_model"
    },
    {
      "children": [
        2
      ],
      "name": "root"
    },
    {
      "children": [
        3
      ],
      "matrix": [
        1.0,
        0.0,
        0.0,
        0.0,
        0.0,
        2.220446049250313e-16,
        1.0,
        0.0,
        0.0,
        -1.0,
        2.220446049250313e-16,
        0.0,
        0.0,
        0.0,
        0.0,
        1.0
      ],
      "name": "GLTF_SceneRootNode"
    },
    {
      "children": [
        4
      ],
      "matrix": [
        1.0,
        -4.184884383003397e-23,
        1.8847043747882708e-07,
        0.0,
        1.8847043747882708e-07,
        2.220446049250313e-16,
        -1.0,
        0.0,
        0.0,
        1.0,
        2.220446049250313e-16,
        0.0,
        0.0,
        0.0,
        0.0,
        1.0
      ],
      "name": "Sketchfab_model_0"
    },
    {
      "children": [
        5,
        7,
        9,
        11,
        13,
        15,
        17
      ],
      "name": "mater.obj.cleaner.materialmerger.gles_1"
    },
    {
      "children": [
        6
      ],
      "name": "Object_2_2"
    },
    {
      "mesh": 0,
      "name": "Object_6"
    },
    {
      "children": [
        8
      ],
      "name": "Object_3_3"
    },
    {
      "mesh": 1,
      "name": "Object_8"
    },
    {
      "children": [
        10
      ],
      "name": "Object_4_4"
    },
    {
      "mesh": 2,
      "name": "Object_10"
    },
    {
      "children": [
        12
      ],
      "name": "Object_5_5"
    },
    {
      "mesh": 3,
      "name": "Object_12"
    },
    {
      "children": [
        14
      ],
      "name": "Object_6_6"
    },
    {
      "mesh": 4,
      "name": "Object_14"
    },
    {
      "children": [
        16
      ],
      "name": "Object_7_7"
    },
    {
      "mesh": 5,
      "name": "Object_16"
    },
    {
      "children": [
        18
      ],
      "name": "Object_8_8"
    },
    {
      "mesh": 6,
      "name": "Object_18"
    }
  ],
  "samplers": [
    {
      "magFilter": 9729,
      "minFilter": 9987,
      "wrapS": 10497,
      "wrapT": 10497
    }
  ],
  "scene": 0,
  "scenes": [
    {
      "name": "Sketchfab_Scene",
      "nodes": [
        0
      ]
    }
  ],
  "textures": [
    {
      "sampler": 0,
      "source": 0
    },
    {
      "sampler": 0,
      "source": 1
    },
    {
      "sampler": 0,
      "source": 2
    },
    {
      "sampler": 0,
      "source": 3
    },
    {
      "sampler": 0,
      "source": 4
    },
    {
      "sampler": 0,
      "source": 5
    },
    {
      "sampler": 0,
      "source": 6
    },
    {
      "sampler": 0,
      "source": 7
    }
  ]
}
